<svg width="19" height="19" viewBox="0 0 19 19" fill="none" xmlns="http://www.w3.org/2000/svg">
<path d="M7.42299 10.0016L14.2723 4.0644C14.405 3.95039 14.5539 3.90231 14.7191 3.92014C14.8841 3.93797 15.0237 4.0119 15.1379 4.14195C15.2521 4.27187 15.3033 4.41999 15.2914 4.58632C15.2796 4.75252 15.2079 4.89266 15.0762 5.00675L7.76467 11.3488C7.6321 11.4628 7.48229 11.5138 7.31525 11.5019C7.1482 11.49 7.00763 11.4182 6.89355 11.2866L3.91158 7.84187C3.79735 7.71231 3.7485 7.56484 3.76502 7.39945C3.78141 7.23417 3.85438 7.09442 3.98394 6.98019C4.11362 6.86597 4.26217 6.81483 4.42958 6.82677C4.59711 6.83872 4.73845 6.91054 4.85362 7.04223L7.42299 10.0016ZM4.31852 14.8545C4.14473 14.8421 4.00294 14.7722 3.89315 14.6449C3.78336 14.5176 3.73469 14.3666 3.74715 14.192C3.7596 14.0174 3.82913 13.8759 3.95574 13.7675C4.08233 13.6592 4.23252 13.6113 4.40632 13.6237L13.5081 14.2729C13.6816 14.2853 13.824 14.3552 13.9353 14.4826C14.0468 14.61 14.0963 14.761 14.0838 14.9357C14.0714 15.1103 14.001 15.2517 13.8727 15.3598C13.7446 15.4681 13.5938 15.5161 13.4203 15.5037L4.31852 14.8545Z" fill="white"/>
</svg>
