<svg width="12" height="12" viewBox="0 0 12 12" fill="none" xmlns="http://www.w3.org/2000/svg">
<path d="M4.44118 6.15414L8.57763 2.0177C8.65781 1.93822 8.75147 1.90043 8.85862 1.90433C8.96568 1.90822 9.05896 1.9494 9.13844 2.02787C9.21792 2.10626 9.25766 2.19927 9.25766 2.30688C9.25766 2.41441 9.21792 2.50792 9.13844 2.5874L4.72299 7.00565C4.64289 7.08513 4.5488 7.12487 4.44072 7.12487C4.33264 7.12487 4.23886 7.08513 4.15938 7.00565L2.08163 4.9251C2.00215 4.84694 1.96393 4.75425 1.96696 4.64703C1.96993 4.53989 2.01048 4.44657 2.08864 4.36709C2.16688 4.28761 2.26015 4.24787 2.36846 4.24787C2.47686 4.24787 2.57114 4.28761 2.65133 4.36709L4.44118 6.15414ZM2.66559 9.42061C2.55314 9.42061 2.45866 9.38216 2.38214 9.30525C2.30562 9.22833 2.26736 9.13339 2.26736 9.0204C2.26736 8.90741 2.30562 8.81312 2.38214 8.73754C2.45866 8.66203 2.55314 8.62427 2.66559 8.62427H8.55448C8.66669 8.62427 8.76156 8.66273 8.8391 8.73964C8.91671 8.81655 8.95551 8.9115 8.95551 9.02449C8.95551 9.13748 8.91671 9.23172 8.8391 9.30723C8.76156 9.38282 8.66669 9.42061 8.55448 9.42061H2.66559Z" fill="white"/>
</svg>
