<svg xmlns="http://www.w3.org/2000/svg" width="34" height="34" viewBox="0 0 34 34" fill="none">
  <path d="M19.8366 12.9L12.0562 12.9001C11.8155 12.8999 11.6133 12.8192 11.4496 12.6581C11.2858 12.4971 11.2033 12.2959 11.202 12.0544C11.2005 11.8125 11.2821 11.6105 11.447 11.4484C11.6119 11.2864 11.8149 11.2048 12.0562 11.2038L21.885 11.2038C22.0144 11.2045 22.1288 11.2253 22.2283 11.2664C22.328 11.3074 22.4172 11.3673 22.4961 11.4461C22.5749 11.525 22.6347 11.6141 22.6753 11.7134C22.7162 11.8128 22.7369 11.927 22.7374 12.0562L22.7374 21.8935C22.7331 22.1379 22.6507 22.3404 22.4902 22.5009C22.3298 22.6613 22.1295 22.7415 21.8892 22.7416C21.6461 22.7387 21.4441 22.6568 21.2832 22.4959C21.1222 22.3349 21.0415 22.1341 21.041 21.8935L21.0412 14.1045L12.4126 22.7332C12.2395 22.9062 12.0388 22.9926 11.8103 22.9925C11.5816 22.9925 11.3809 22.906 11.208 22.7332C11.0351 22.5603 10.9487 22.3595 10.9487 22.1309C10.9485 21.9024 11.035 21.7016 11.208 21.5286L19.8366 12.9Z" fill="white"/>
</svg>